<mxfile host="app.diagrams.net" modified="2023-06-24T07:51:23.929Z" agent="Mozilla/5.0 (Windows NT 10.0; Win64; x64) AppleWebKit/537.36 (KHTML, like Gecko) Chrome/114.0.0.0 Safari/537.36 Edg/114.0.1823.58" version="21.5.0" etag="0F7kurc4KCl3t1zK9ZWr" type="github">
  <diagram name="第 1 页" id="-JqnSw1b2xYXMFS_t_ng">
    <mxGraphModel>
      <root>
        <mxCell id="0" />
        <mxCell id="1" parent="0" />
      </root>
    </mxGraphModel>
  </diagram>
</mxfile>
